HIERARCHY
ROOT joint_Root
{
	OFFSET 0.0 0.0 0.0
	CHANNELS 6 Xposition Yposition Zposition Zrotation Xrotation Yrotation 
	JOINT Hips
	{
		OFFSET -17.1583 93.1646 452.98
		CHANNELS 6 Xposition Yposition Zposition Zrotation Xrotation Yrotation 
		JOINT Spine
		{
			OFFSET 15.7357 0.0 0.0
			CHANNELS 6 Xposition Yposition Zposition Zrotation Xrotation Yrotation 
			JOINT Chest
			{
				OFFSET 8.98455 -0.406207 0.0
				CHANNELS 6 Xposition Yposition Zposition Zrotation Xrotation Yrotation 
				JOINT Neck
				{
					OFFSET 16.3773 0.0 0.0
					CHANNELS 6 Xposition Yposition Zposition Zrotation Xrotation Yrotation 
					JOINT Head
					{
						OFFSET 6.45672 0.0 0.0
						CHANNELS 6 Xposition Yposition Zposition Zrotation Xrotation Yrotation 
						End Site
						{
							OFFSET 0.0 0.0 0.0
						}
					}
				}
				JOINT Shoulder_L
				{
					OFFSET 12.9942 -0.242716 4.98039
					CHANNELS 6 Xposition Yposition Zposition Zrotation Xrotation Yrotation 
					JOINT UpperArm_L
					{
						OFFSET 5.34809 0.0 0.0
						CHANNELS 6 Xposition Yposition Zposition Zrotation Xrotation Yrotation 
						JOINT LowerArm_L
						{
							OFFSET 24.3286 1.87007e-05 0.0
							CHANNELS 6 Xposition Yposition Zposition Zrotation Xrotation Yrotation 
							JOINT Hand_L
							{
								OFFSET 22.2916 0.0 0.0
								CHANNELS 6 Xposition Yposition Zposition Zrotation Xrotation Yrotation 
								End Site
								{
									OFFSET 0.0 0.0 0.0
								}
							}
						}
					}
				}
				JOINT Shoulder_R
				{
					OFFSET 12.9945 -0.242716 -4.98039
					CHANNELS 6 Xposition Yposition Zposition Zrotation Xrotation Yrotation 
					JOINT UpperArm_R
					{
						OFFSET -5.34813 0.0 0.0
						CHANNELS 6 Xposition Yposition Zposition Zrotation Xrotation Yrotation 
						JOINT LowerArm_R
						{
							OFFSET -24.3289 0.000322201 0.0
							CHANNELS 6 Xposition Yposition Zposition Zrotation Xrotation Yrotation 
							JOINT Hand_R
							{
								OFFSET -22.2915 -0.000108084 0.0
								CHANNELS 6 Xposition Yposition Zposition Zrotation Xrotation Yrotation 
								End Site
								{
									OFFSET 0.0 0.0 0.0
								}
							}
						}
					}
				}
			}
		}
		JOINT UpperLeg_L
		{
			OFFSET -2.19248 -6.46944 0.0
			CHANNELS 6 Xposition Yposition Zposition Zrotation Xrotation Yrotation 
			JOINT LowerLeg_L
			{
				OFFSET 39.0811 0.0 -1.23785e-05
				CHANNELS 6 Xposition Yposition Zposition Zrotation Xrotation Yrotation 
				JOINT Foot_L
				{
					OFFSET 40.9854 0.0 -1.26872e-05
					CHANNELS 6 Xposition Yposition Zposition Zrotation Xrotation Yrotation 
					JOINT Toes_L
					{
						OFFSET 11.7543 0.0 0.0
						CHANNELS 6 Xposition Yposition Zposition Zrotation Xrotation Yrotation 
						End Site
						{
							OFFSET 0.0 0.0 0.0
						}
					}
				}
			}
		}
		JOINT UpperLeg_R
		{
			OFFSET -2.19251 6.46944 0.0
			CHANNELS 6 Xposition Yposition Zposition Zrotation Xrotation Yrotation 
			JOINT LowerLeg_R
			{
				OFFSET -39.0811 -0.00228153 -0.0401928
				CHANNELS 6 Xposition Yposition Zposition Zrotation Xrotation Yrotation 
				JOINT Foot_R
				{
					OFFSET -40.9854 0.0 0.0
					CHANNELS 6 Xposition Yposition Zposition Zrotation Xrotation Yrotation 
					JOINT Toes_R
					{
						OFFSET -11.7543 0.0 0.0
						CHANNELS 6 Xposition Yposition Zposition Zrotation Xrotation Yrotation 
						End Site
						{
							OFFSET 0.0 0.0 0.0
						}
					}
				}
			}
		}
	}
}
MOTION
Frames:	8
Frame Time:	0.0333333
0.000000 0.000000 0.000000 0.000000 0.000000 -0.000000 -0.093414 92.817500 3.226150 86.394600 -2.279470 1.464470 15.735700 0.000005 -0.000001 92.543000 86.898100 -100.822000 8.984550 -0.406207 -0.000000 -1.446620 0.937914 -16.542600 16.377300 -0.000001 -0.000001 3.117090 -2.189630 -7.073690 6.456720 -0.000001 -0.000000 -4.225150 1.174470 -18.213300 12.994200 -0.242716 4.980390 -92.376500 7.640200 -72.664000 5.348090 -0.000007 -0.000001 -56.259500 6.358340 1.743680 24.328600 0.000019 0.000005 14.055300 25.186100 -30.467800 22.291600 -0.000001 0.000005 2.405920 4.787550 11.551300 12.994500 -0.242716 -4.980390 94.612600 -8.549180 -61.510500 -5.348130 -0.000001 -0.000004 -31.725600 -61.389900 -68.878900 -24.328900 0.000322 -0.000009 0.493225 3.051420 -9.205270 -22.291500 -0.000108 -0.000004 52.018100 5.504650 -6.722100 -2.192480 -6.469440 -0.000000 -172.964000 -6.751140 1.398060 39.081100 -0.000007 -0.000012 0.028059 -0.091836 16.989700 40.985400 -0.000006 -0.000013 -0.194932 8.212010 -70.811200 11.754300 -0.000000 0.000003 -0.003509 0.213863 -7.898090 -2.192510 6.469440 -0.000001 176.586000 10.611000 -175.353000 -39.081100 -0.002282 -0.040193 -0.012792 0.093906 9.747400 -40.985400 0.000008 0.000006 -10.514500 12.797900 -64.908400 -11.754300 -0.000006 -0.000006 -0.010569 0.275511 -5.378930
0.000000 0.000000 0.000000 0.000000 0.000000 -0.000000 -0.133234 92.820800 3.205910 86.391500 -2.248410 1.468610 15.735700 0.000005 -0.000001 92.284800 86.887000 -100.541000 8.984550 -0.406207 -0.000000 -1.425930 0.907498 -16.495800 16.377300 -0.000001 -0.000001 3.173680 -2.222890 -7.063400 6.456720 -0.000001 -0.000000 -4.227900 1.110740 -18.160400 12.994200 -0.242716 4.980390 -92.380100 7.646370 -72.652500 5.348090 -0.000007 -0.000001 -56.400800 6.324800 1.834980 24.328600 0.000019 0.000005 14.108200 25.288900 -30.470600 22.291600 -0.000001 0.000005 2.328770 4.789700 11.511000 12.994500 -0.242716 -4.980390 94.610700 -8.541760 -61.499400 -5.348130 -0.000001 -0.000004 -32.147800 -61.370700 -69.242700 -24.328900 0.000322 -0.000009 0.440412 2.776120 -9.039020 -22.291500 -0.000108 -0.000004 51.886600 5.507590 -6.842580 -2.192480 -6.469440 -0.000000 -172.916000 -6.796060 1.380360 39.081100 -0.000007 -0.000012 0.026914 -0.088141 16.980200 40.985400 -0.000006 -0.000013 -0.222478 8.279850 -70.755500 11.754300 -0.000000 0.000003 -0.003426 0.212963 -7.934730 -2.192510 6.469440 -0.000001 176.639000 10.591100 -175.381000 -39.081100 -0.002282 -0.040193 -0.012764 0.093452 9.776610 -40.985400 0.000008 0.000006 -10.377300 12.732800 -64.896900 -11.754300 -0.000006 -0.000006 -0.010044 0.271632 -5.537600
0.000000 0.000000 0.000000 0.000000 0.000000 -0.000000 -0.169903 92.832700 3.180130 86.378700 -2.201490 1.478350 15.735700 0.000005 -0.000001 92.005400 86.875400 -100.239000 8.984550 -0.406207 -0.000000 -1.404430 0.874657 -16.451500 16.377300 -0.000001 -0.000001 3.261310 -2.267210 -6.973550 6.456720 -0.000001 -0.000000 -4.288680 1.119860 -18.201200 12.994200 -0.242716 4.980390 -92.396400 7.680880 -72.614300 5.348090 -0.000007 -0.000001 -56.526100 6.439610 1.936440 24.328600 0.000019 0.000005 14.057400 25.255200 -30.407800 22.291600 -0.000001 0.000005 2.325160 4.786060 11.579200 12.994500 -0.242716 -4.980390 94.582300 -8.491710 -61.508600 -5.348130 -0.000001 -0.000004 -31.983400 -61.306700 -69.160100 -24.328900 0.000322 -0.000009 0.407317 2.633370 -8.817870 -22.291500 -0.000108 -0.000004 51.768100 5.504470 -6.714730 -2.192480 -6.469440 -0.000000 -172.882000 -6.781320 1.399190 39.081100 -0.000007 -0.000012 0.026710 -0.087790 16.922800 40.985400 -0.000006 -0.000013 -0.250394 8.288710 -70.759800 11.754300 -0.000000 0.000003 -0.003552 0.214327 -7.879210 -2.192510 6.469440 -0.000001 176.659000 10.643700 -175.367000 -39.081100 -0.002282 -0.040193 -0.012760 0.093593 9.760230 -40.985400 0.000008 0.000006 -10.539000 12.757600 -64.898900 -11.754300 -0.000006 -0.000006 -0.010632 0.275965 -5.360350
0.000000 0.000000 0.000000 0.000000 0.000000 -0.000000 -0.208127 92.836500 3.146300 86.381400 -2.164090 1.420870 15.735700 0.000005 -0.000001 91.748700 86.873800 -99.972400 8.984550 -0.406207 -0.000000 -1.402670 0.845882 -16.432400 16.377300 -0.000001 -0.000001 3.290360 -2.302980 -6.893610 6.456720 -0.000001 -0.000000 -4.350920 1.136430 -18.227600 12.994200 -0.242716 4.980390 -92.397000 7.675190 -72.597500 5.348090 -0.000007 -0.000001 -56.701800 6.406070 1.940180 24.328600 0.000019 0.000005 13.970700 25.339800 -30.168900 22.291600 -0.000001 0.000005 2.206770 4.786790 11.565600 12.994500 -0.242716 -4.980390 94.574300 -8.477300 -61.510400 -5.348130 -0.000001 -0.000004 -32.042600 -61.315400 -69.139600 -24.328900 0.000322 -0.000009 0.386983 2.531620 -8.716850 -22.291500 -0.000108 -0.000004 51.624200 5.505770 -6.767740 -2.192480 -6.469440 -0.000000 -172.865000 -6.735950 1.313500 39.081100 -0.000007 -0.000012 0.026699 -0.087794 16.915500 40.985400 -0.000006 -0.000013 -0.279629 8.305220 -70.721700 11.754300 -0.000000 0.000003 -0.003382 0.212478 -7.954470 -2.192510 6.469440 -0.000001 176.717000 10.658100 -175.450000 -39.081100 -0.002282 -0.040193 -0.012500 0.092137 9.754530 -40.985400 0.000008 0.000006 -10.372600 12.701900 -64.865100 -11.754300 -0.000006 -0.000006 -0.010298 0.273516 -5.460560
0.000000 0.000000 0.000000 0.000000 0.000000 -0.000000 -0.234857 92.845300 3.097030 86.378900 -2.165450 1.397210 15.735700 0.000005 -0.000001 91.880000 86.869200 -100.094000 8.984550 -0.406207 -0.000000 -1.393180 0.859023 -16.412300 16.377300 -0.000001 -0.000001 3.287570 -2.302870 -6.890410 6.456720 -0.000001 -0.000000 -4.317650 1.098200 -18.160000 12.994200 -0.242716 4.980390 -92.397200 7.667280 -72.580000 5.348090 -0.000007 -0.000001 -56.892300 6.400610 2.012130 24.328600 0.000019 0.000005 13.953200 25.461200 -30.025600 22.291600 -0.000001 0.000005 2.185830 4.785880 11.582600 12.994500 -0.242716 -4.980390 94.550500 -8.436250 -61.520500 -5.348130 -0.000001 -0.000004 -31.853800 -61.307900 -68.938000 -24.328900 0.000322 -0.000009 0.369710 2.445840 -8.622170 -22.291500 -0.000108 -0.000004 51.577200 5.505330 -6.749860 -2.192480 -6.469440 -0.000000 -172.850000 -6.669560 1.268070 39.081100 -0.000007 -0.000012 0.026408 -0.086979 16.889300 40.985400 -0.000006 -0.000013 -0.312107 8.278340 -70.690800 11.754300 -0.000000 0.000003 -0.003463 0.213360 -7.918570 -2.192510 6.469440 -0.000001 176.741000 10.640200 -175.494000 -39.081100 -0.002282 -0.040193 -0.012199 0.090566 9.735280 -40.985400 0.000008 0.000006 -10.557100 12.686300 -64.813900 -11.754300 -0.000006 -0.000006 -0.010462 0.274724 -5.411110
0.000000 0.000000 0.000000 0.000000 0.000000 -0.000000 -0.262362 92.845400 3.062470 86.354900 -2.178260 1.409710 15.735700 0.000005 -0.000001 91.949900 86.859700 -100.147000 8.984550 -0.406207 -0.000000 -1.374380 0.864677 -16.379800 16.377300 -0.000001 -0.000001 3.322900 -2.301810 -6.841380 6.456720 -0.000001 -0.000000 -4.295930 1.117600 -18.182600 12.994200 -0.242716 4.980390 -92.416100 7.714690 -72.551500 5.348090 -0.000007 -0.000001 -56.992300 6.398370 2.062320 24.328600 0.000019 0.000005 13.877800 25.527400 -29.825900 22.291600 -0.000001 0.000005 2.166760 4.784510 11.608300 12.994500 -0.242716 -4.980390 94.544400 -8.420070 -61.507000 -5.348130 -0.000001 -0.000004 -31.877900 -61.244800 -68.939600 -24.328900 0.000322 -0.000009 0.356685 2.392600 -8.506010 -22.291500 -0.000108 -0.000004 51.642600 5.500260 -6.543830 -2.192480 -6.469440 -0.000000 -172.803000 -6.719530 1.231180 39.081100 -0.000007 -0.000012 0.026122 -0.085713 16.949300 40.985400 -0.000006 -0.000013 -0.322396 8.311660 -70.699200 11.754300 -0.000000 0.000003 -0.003712 0.216046 -7.809190 -2.192510 6.469440 -0.000001 176.804000 10.567000 -175.527000 -39.081100 -0.002282 -0.040193 -0.012261 0.090602 9.769910 -40.985400 0.000008 0.000006 -10.433400 12.630200 -64.834000 -11.754300 -0.000006 -0.000006 -0.010365 0.274015 -5.440120
0.000000 0.000000 0.000000 0.000000 0.000000 -0.000000 -0.277140 92.856000 3.026250 86.374400 -2.180410 1.441310 15.735700 0.000005 -0.000001 91.844000 86.837900 -100.040000 8.984550 -0.406207 -0.000000 -1.331430 0.851252 -16.376200 16.377300 -0.000001 -0.000001 3.308020 -2.260160 -6.884410 6.456720 -0.000001 -0.000000 -4.203070 1.086550 -18.069100 12.994200 -0.242716 4.980390 -92.426200 7.746220 -72.549400 5.348090 -0.000007 -0.000001 -57.113000 6.369130 2.158860 24.328600 0.000019 0.000005 13.846500 25.610500 -29.693200 22.291600 -0.000001 0.000005 2.194310 4.788690 11.530000 12.994500 -0.242716 -4.980390 94.539000 -8.408590 -61.502900 -5.348130 -0.000001 -0.000004 -31.902200 -61.237600 -68.901500 -24.328900 0.000322 -0.000009 0.335309 2.268350 -8.436530 -22.291500 -0.000108 -0.000004 51.528900 5.501170 -6.580740 -2.192480 -6.469440 -0.000000 -172.803000 -6.760850 1.283200 39.081100 -0.000007 -0.000012 0.025482 -0.084052 16.865900 40.985400 -0.000006 -0.000013 -0.339676 8.332570 -70.641500 11.754300 -0.000000 0.000003 -0.003310 0.211693 -7.986410 -2.192510 6.469440 -0.000001 176.806000 10.571600 -175.512000 -39.081100 -0.002282 -0.040193 -0.012244 0.090629 9.756110 -40.985400 0.000008 0.000006 -10.348100 12.594300 -64.858800 -11.754300 -0.000006 -0.000006 -0.010378 0.274111 -5.436230
0.000000 0.000000 0.000000 0.000000 0.000000 -0.000000 -0.303613 92.859100 2.975300 86.362200 -2.181040 1.416030 15.735700 0.000005 -0.000001 91.729400 86.848800 -99.915600 8.984550 -0.406207 -0.000000 -1.353750 0.838819 -16.357600 16.377300 -0.000001 -0.000001 3.304200 -2.227360 -6.832160 6.456720 -0.000001 -0.000000 -4.044150 1.168310 -18.045600 12.994200 -0.242716 4.980390 -92.435200 7.780170 -72.559500 5.348090 -0.000007 -0.000001 -57.183300 6.393190 2.234490 24.328600 0.000019 0.000005 13.748400 25.628100 -29.495600 22.291600 -0.000001 0.000005 2.194860 4.788200 11.539100 12.994500 -0.242716 -4.980390 94.534600 -8.399700 -61.501400 -5.348130 -0.000001 -0.000004 -31.809700 -61.174300 -68.788600 -24.328900 0.000322 -0.000009 0.336045 2.318300 -8.275250 -22.291500 -0.000108 -0.000004 51.527400 5.497580 -6.436430 -2.192480 -6.469440 -0.000000 -172.770000 -6.816870 1.194730 39.081100 -0.000007 -0.000012 0.025222 -0.082945 16.913800 40.985400 -0.000006 -0.000013 -0.347057 8.393450 -70.617000 11.754300 -0.000000 0.000003 -0.003494 0.213704 -7.904570 -2.192510 6.469440 -0.000001 176.853000 10.508700 -175.581000 -39.081100 -0.002282 -0.040193 -0.012042 0.089332 9.769700 -40.985400 0.000008 0.000006 -10.304300 12.556500 -64.836100 -11.754300 -0.000006 -0.000006 -0.010218 0.272925 -5.484730
